<svg xmlns="http://www.w3.org/2000/svg" viewBox="0 0 1380 2048" font-family="Calibri, Helvetica, Arial, sans-serif">
<defs><marker id="g" viewBox="0 0 10 10" refX="9" refY="5" markerWidth="7.5" markerHeight="7.5" orient="auto"><path d="M 0 0 L 10 5 L 0 10 z" fill="#2E7D32"/></marker><marker id="b" viewBox="0 0 10 10" refX="9" refY="5" markerWidth="7.5" markerHeight="7.5" orient="auto"><path d="M 0 0 L 10 5 L 0 10 z" fill="#1B6CA8"/></marker><marker id="t" viewBox="0 0 10 10" refX="9" refY="5" markerWidth="7.5" markerHeight="7.5" orient="auto"><path d="M 0 0 L 10 5 L 0 10 z" fill="#2E9B8A"/></marker><marker id="o" viewBox="0 0 10 10" refX="9" refY="5" markerWidth="7.5" markerHeight="7.5" orient="auto"><path d="M 0 0 L 10 5 L 0 10 z" fill="#E67E22"/></marker><marker id="r" viewBox="0 0 10 10" refX="9" refY="5" markerWidth="7.5" markerHeight="7.5" orient="auto"><path d="M 0 0 L 10 5 L 0 10 z" fill="#C0392B"/></marker><marker id="k" viewBox="0 0 10 10" refX="9" refY="5" markerWidth="7.5" markerHeight="7.5" orient="auto"><path d="M 0 0 L 10 5 L 0 10 z" fill="#4A4A6A"/></marker></defs>
<rect width="1380" height="2048" fill="#FAF8F2"/>
<text x="40" y="50" font-size="30" font-weight="bold" fill="#1A1A2E">Translate &amp; Disperse</text>
<text x="40" y="82" font-size="15" fill="#3A4150">The work of moving knowledge across boundaries so it becomes usable by people who didn't generate it. PHIs translate between research and practice,</text>
<text x="40" y="104" font-size="15" fill="#3A4150">between federal policy and local implementation, and between expert communities and the operating professionals who need to act on information.</text>
<text x="40" y="158" font-size="17" font-weight="bold" fill="#1A1A2E">Internal feedback loops</text>
<rect x="40" y="170" width="1112" height="328" rx="14" fill="#EEF1F5"/>
<rect x="66" y="196" width="340" height="128" rx="9" fill="#FFFFFF" stroke="#E2E5EA" stroke-width="1"/>
<circle cx="96" cy="224" r="12" fill="#3C9A4E"/><text x="96" y="228" font-size="10.5" font-weight="bold" fill="#FFFFFF" text-anchor="middle" font-family="Calibri, sans-serif">R1</text>
<text x="116" y="229" font-size="13" font-weight="bold" fill="#1A1A2E" font-family="Calibri, sans-serif">Relevance flywheel</text>
<text x="84" y="250" font-size="10.5" fill="#5A6270" font-family="Calibri, sans-serif">Good translation gets knowledge used, which makes PHIs the</text>
<text x="84" y="264" font-size="10.5" fill="#5A6270" font-family="Calibri, sans-serif">trusted go-to translator, which brings more demand,</text>
<text x="84" y="278" font-size="10.5" fill="#5A6270" font-family="Calibri, sans-serif">partners, and reach, which funds more translation. The</text>
<text x="84" y="292" font-size="10.5" fill="#5A6270" font-family="Calibri, sans-serif">engine.</text>
<rect x="426" y="196" width="340" height="128" rx="9" fill="#FFFFFF" stroke="#E2E5EA" stroke-width="1"/>
<circle cx="456" cy="224" r="12" fill="#3C9A4E"/><text x="456" y="228" font-size="10.5" font-weight="bold" fill="#FFFFFF" text-anchor="middle" font-family="Calibri, sans-serif">R2</text>
<text x="476" y="229" font-size="13" font-weight="bold" fill="#1A1A2E" font-family="Calibri, sans-serif">Two-way feedback</text>
<text x="444" y="250" font-size="10.5" fill="#5A6270" font-family="Calibri, sans-serif">Community feedback drives tailoring, which raises fidelity</text>
<text x="444" y="264" font-size="10.5" fill="#5A6270" font-family="Calibri, sans-serif">and uptake, which deepens relationships, which brings</text>
<text x="444" y="278" font-size="10.5" fill="#5A6270" font-family="Calibri, sans-serif">richer feedback next time. What keeps translation</text>
<text x="444" y="292" font-size="10.5" fill="#5A6270" font-family="Calibri, sans-serif">accurate.</text>
<rect x="786" y="196" width="340" height="128" rx="9" fill="#FFFFFF" stroke="#E2E5EA" stroke-width="1"/>
<circle cx="816" cy="224" r="12" fill="#3C9A4E"/><text x="816" y="228" font-size="10.5" font-weight="bold" fill="#FFFFFF" text-anchor="middle" font-family="Calibri, sans-serif">R3</text>
<text x="836" y="229" font-size="13" font-weight="bold" fill="#1A1A2E" font-family="Calibri, sans-serif">Partner-leverage reach</text>
<text x="804" y="250" font-size="10.5" fill="#5A6270" font-family="Calibri, sans-serif">Leveraging partner channels extends reach cheaply, which</text>
<text x="804" y="264" font-size="10.5" fill="#5A6270" font-family="Calibri, sans-serif">raises visibility, which attracts more partners, which</text>
<text x="804" y="278" font-size="10.5" fill="#5A6270" font-family="Calibri, sans-serif">broadens reach. Lets PHIs disperse far beyond their own</text>
<text x="804" y="292" font-size="10.5" fill="#5A6270" font-family="Calibri, sans-serif">budget.</text>
<rect x="66" y="344" width="340" height="128" rx="9" fill="#FFFFFF" stroke="#E2E5EA" stroke-width="1"/>
<circle cx="96" cy="372" r="12" fill="#E0792B"/><text x="96" y="376" font-size="10.5" font-weight="bold" fill="#FFFFFF" text-anchor="middle" font-family="Calibri, sans-serif">B1</text>
<text x="116" y="377" font-size="13" font-weight="bold" fill="#1A1A2E" font-family="Calibri, sans-serif">Reach vs. fidelity</text>
<text x="84" y="398" font-size="10.5" fill="#5A6270" font-family="Calibri, sans-serif">Pushing for broad scale and speed means less tailoring per</text>
<text x="84" y="412" font-size="10.5" fill="#5A6270" font-family="Calibri, sans-serif">audience, so fidelity drops and the message distorts, so</text>
<text x="84" y="426" font-size="10.5" fill="#5A6270" font-family="Calibri, sans-serif">uptake falls. Scale and fidelity must be balanced, not</text>
<text x="84" y="440" font-size="10.5" fill="#5A6270" font-family="Calibri, sans-serif">maximized.</text>
<rect x="426" y="344" width="340" height="128" rx="9" fill="#FFFFFF" stroke="#E2E5EA" stroke-width="1"/>
<circle cx="456" cy="372" r="12" fill="#E0792B"/><text x="456" y="376" font-size="10.5" font-weight="bold" fill="#FFFFFF" text-anchor="middle" font-family="Calibri, sans-serif">B2</text>
<text x="476" y="377" font-size="13" font-weight="bold" fill="#1A1A2E" font-family="Calibri, sans-serif">Capacity / funding constraint</text>
<text x="444" y="398" font-size="10.5" fill="#5A6270" font-family="Calibri, sans-serif">Comms and dissemination are thinly funded; projects scale</text>
<text x="444" y="412" font-size="10.5" fill="#5A6270" font-family="Calibri, sans-serif">only to the funding available, so demand outruns capacity.</text>
<text x="444" y="426" font-size="10.5" fill="#5A6270" font-family="Calibri, sans-serif">Funding and leveraged partner resources are the relief</text>
<text x="444" y="440" font-size="10.5" fill="#5A6270" font-family="Calibri, sans-serif">valves.</text>
<rect x="786" y="344" width="340" height="128" rx="9" fill="#FFFFFF" stroke="#E2E5EA" stroke-width="1"/>
<circle cx="816" cy="372" r="12" fill="#E0792B"/><text x="816" y="376" font-size="10.5" font-weight="bold" fill="#FFFFFF" text-anchor="middle" font-family="Calibri, sans-serif">B3</text>
<text x="836" y="377" font-size="13" font-weight="bold" fill="#1A1A2E" font-family="Calibri, sans-serif">Neutrality tension</text>
<text x="804" y="398" font-size="10.5" fill="#5A6270" font-family="Calibri, sans-serif">Crossing polarized boundaries depends on staying</text>
<text x="804" y="412" font-size="10.5" fill="#5A6270" font-family="Calibri, sans-serif">nonpartisan; lean too far on a sensitive issue and you</text>
<text x="804" y="426" font-size="10.5" fill="#5A6270" font-family="Calibri, sans-serif">lose access with some audiences. Careful, inclusive</text>
<text x="804" y="440" font-size="10.5" fill="#5A6270" font-family="Calibri, sans-serif">language is the lever.</text>
<text x="40" y="566" font-size="17" font-weight="bold" fill="#1A1A2E">The loops, drawn</text>
<rect x="42" y="590" width="636" height="456" rx="12" fill="#FFFFFF" stroke="#E4E0D4" stroke-width="1"/>
<text x="64" y="624" font-size="18" font-weight="bold" fill="#2E7D32" font-family="Calibri, sans-serif">R1  Relevance flywheel</text>
<text x="64" y="644" font-size="12" font-style="italic" fill="#6B6B85" font-family="Calibri, sans-serif">Reinforcing loop</text>
<text x="360.0" y="832.0" font-size="24" font-weight="bold" fill="#2E7D32" text-anchor="middle" opacity="0.16" font-family="Calibri, sans-serif">R1</text>
<g transform="translate(60,1002)"><rect width="600" height="40" rx="6" fill="#F4F1E8" stroke="#E4E0D4" stroke-width="0.6"/><text x="14" y="17" font-size="10.5" fill="#5A5536" font-family="Calibri, sans-serif"><tspan x="14" dy="0">The engine: good translation gets used, which funds more translation.</tspan><tspan x="14" dy="13"></tspan></text></g>
<circle cx="360.0" cy="716.0" r="52" fill="#9BD86A" stroke="#FFFFFF" stroke-width="2"/><text font-size="10.5" font-weight="bold" fill="#15233E" text-anchor="middle" font-family="Calibri, sans-serif"><tspan x="360.0" y="709.5">Government</tspan><tspan x="360.0" y="722.6">funding</tspan></text>
<circle cx="531.5" cy="776.0" r="52" fill="#B7CEF0" stroke="#FFFFFF" stroke-width="2"/><text font-size="10.5" font-weight="bold" fill="#15233E" text-anchor="middle" font-family="Calibri, sans-serif"><tspan x="531.4730299493189" y="769.5">Workforce</tspan><tspan x="531.4730299493189" y="782.6">development</tspan></text>
<circle cx="531.5" cy="896.0" r="52" fill="#B7CEF0" stroke="#FFFFFF" stroke-width="2"/><text font-size="10.5" font-weight="bold" fill="#15233E" text-anchor="middle" font-family="Calibri, sans-serif"><tspan x="531.4730299493189" y="896.0">Translation</tspan></text>
<circle cx="360.0" cy="956.0" r="52" fill="#6E97E8" stroke="#FFFFFF" stroke-width="2"/><text font-size="10.5" font-weight="bold" fill="#15233E" text-anchor="middle" font-family="Calibri, sans-serif"><tspan x="360.0" y="949.5">Usable</tspan><tspan x="360.0" y="962.6">knowledge</tspan></text>
<circle cx="188.5" cy="896.0" r="52" fill="#C7B2EA" stroke="#FFFFFF" stroke-width="2"/><text font-size="10.5" font-weight="bold" fill="#15233E" text-anchor="middle" font-family="Calibri, sans-serif"><tspan x="188.52697005068117" y="889.5">Meaningful</tspan><tspan x="188.52697005068117" y="902.6">application</tspan></text>
<circle cx="188.5" cy="776.0" r="52" fill="#6E97E8" stroke="#FFFFFF" stroke-width="2"/><text font-size="10.5" font-weight="bold" fill="#15233E" text-anchor="middle" font-family="Calibri, sans-serif"><tspan x="188.52697005068117" y="776.0">Trust</tspan></text>
<path d="M 409.1 733.2 Q 471.9 718.5 482.4 758.8" stroke="#2E7D32" stroke-width="2.4" fill="none" marker-end="url(#g)"/>
<g transform="translate(439.0,692.1)"><rect width="99" height="18" rx="4" fill="#FFFFFF" stroke="#E4E0D4" stroke-width="0.5"/><text x="50" y="13" font-size="9.3" fill="#2E7D32" text-anchor="middle" font-family="Calibri, sans-serif" font-style="italic">funds capacity (+)</text></g>
<path d="M 531.5 828.0 Q 569.5 836.0 531.5 844.0" stroke="#2E7D32" stroke-width="2.4" fill="none" marker-end="url(#g)"/>
<g transform="translate(535.7,827.0)"><rect width="116" height="18" rx="4" fill="#FFFFFF" stroke="#E4E0D4" stroke-width="0.5"/><text x="58" y="13" font-size="9.3" fill="#2E7D32" text-anchor="middle" font-family="Calibri, sans-serif" font-style="italic">grows translators (+)</text></g>
<path d="M 482.4 913.2 Q 471.9 953.5 409.1 938.8" stroke="#2E7D32" stroke-width="2.4" fill="none" marker-end="url(#g)"/>
<g transform="translate(436.3,961.9)"><rect width="104" height="18" rx="4" fill="#FFFFFF" stroke="#E4E0D4" stroke-width="0.5"/><text x="52" y="13" font-size="9.3" fill="#2E7D32" text-anchor="middle" font-family="Calibri, sans-serif" font-style="italic">makes it usable (+)</text></g>
<path d="M 310.9 938.8 Q 248.1 953.5 237.6 913.2" stroke="#2E7D32" stroke-width="2.4" fill="none" marker-end="url(#g)"/>
<g transform="translate(195.7,961.9)"><rect width="72" height="18" rx="4" fill="#FFFFFF" stroke="#E4E0D4" stroke-width="0.5"/><text x="36" y="13" font-size="9.3" fill="#2E7D32" text-anchor="middle" font-family="Calibri, sans-serif" font-style="italic">gets used (+)</text></g>
<path d="M 188.5 844.0 Q 150.5 836.0 188.5 828.0" stroke="#2E7D32" stroke-width="2.4" fill="none" marker-end="url(#g)"/>
<g transform="translate(66.0,827.0)"><rect width="121" height="18" rx="4" fill="#FFFFFF" stroke="#E4E0D4" stroke-width="0.5"/><text x="60" y="13" font-size="9.3" fill="#2E7D32" text-anchor="middle" font-family="Calibri, sans-serif" font-style="italic">builds credibility (+)</text></g>
<path d="M 237.6 758.8 Q 248.1 718.5 310.9 733.2" stroke="#2E7D32" stroke-width="2.4" fill="none" marker-end="url(#g)"/>
<g transform="translate(187.5,692.1)"><rect width="88" height="18" rx="4" fill="#FFFFFF" stroke="#E4E0D4" stroke-width="0.5"/><text x="44" y="13" font-size="9.3" fill="#2E7D32" text-anchor="middle" font-family="Calibri, sans-serif" font-style="italic">wins funding (+)</text></g>
<rect x="702" y="590" width="636" height="456" rx="12" fill="#FFFFFF" stroke="#E4E0D4" stroke-width="1"/>
<text x="724" y="624" font-size="18" font-weight="bold" fill="#1B6CA8" font-family="Calibri, sans-serif">R2  Two-way feedback</text>
<text x="724" y="644" font-size="12" font-style="italic" fill="#6B6B85" font-family="Calibri, sans-serif">Reinforcing loop</text>
<text x="1020.0" y="832.0" font-size="24" font-weight="bold" fill="#1B6CA8" text-anchor="middle" opacity="0.16" font-family="Calibri, sans-serif">R2</text>
<g transform="translate(720,1002)"><rect width="600" height="40" rx="6" fill="#F4F1E8" stroke="#E4E0D4" stroke-width="0.6"/><text x="14" y="17" font-size="10.5" fill="#5A5536" font-family="Calibri, sans-serif"><tspan x="14" dy="0">What keeps translation accurate: listening loops back into tailoring.</tspan><tspan x="14" dy="13"></tspan></text></g>
<circle cx="1020.0" cy="716.0" r="52" fill="#FBE268" stroke="#FFFFFF" stroke-width="2"/><text font-size="10.5" font-weight="bold" fill="#15233E" text-anchor="middle" font-family="Calibri, sans-serif"><tspan x="1020.0" y="709.5">Communities &amp;</tspan><tspan x="1020.0" y="722.6">local leaders</tspan></text>
<circle cx="1208.3" cy="798.9" r="52" fill="#B7CEF0" stroke="#FFFFFF" stroke-width="2"/><text font-size="10.5" font-weight="bold" fill="#15233E" text-anchor="middle" font-family="Calibri, sans-serif"><tspan x="1208.3091902264405" y="792.4">Audience</tspan><tspan x="1208.3091902264405" y="805.5">tailoring</tspan></text>
<circle cx="1136.4" cy="933.1" r="52" fill="#6E97E8" stroke="#FFFFFF" stroke-width="2"/><text font-size="10.5" font-weight="bold" fill="#15233E" text-anchor="middle" font-family="Calibri, sans-serif"><tspan x="1136.3814799539098" y="926.6">Fidelity of</tspan><tspan x="1136.3814799539098" y="939.7">translation</tspan></text>
<circle cx="903.6" cy="933.1" r="52" fill="#6E97E8" stroke="#FFFFFF" stroke-width="2"/><text font-size="10.5" font-weight="bold" fill="#15233E" text-anchor="middle" font-family="Calibri, sans-serif"><tspan x="903.6185200460903" y="926.6">Usable</tspan><tspan x="903.6185200460903" y="939.7">knowledge</tspan></text>
<circle cx="831.7" cy="798.9" r="52" fill="#C7B2EA" stroke="#FFFFFF" stroke-width="2"/><text font-size="10.5" font-weight="bold" fill="#15233E" text-anchor="middle" font-family="Calibri, sans-serif"><tspan x="831.6908097735595" y="792.4">Meaningful</tspan><tspan x="831.6908097735595" y="805.5">application</tspan></text>
<path d="M 1067.6 737.0 Q 1143.3 733.1 1160.7 778.0" stroke="#1B6CA8" stroke-width="2.4" fill="none" marker-end="url(#b)"/>
<g transform="translate(1104.0,708.7)"><rect width="116" height="18" rx="4" fill="#FFFFFF" stroke="#E4E0D4" stroke-width="0.5"/><text x="58" y="13" font-size="9.3" fill="#1B6CA8" text-anchor="middle" font-family="Calibri, sans-serif" font-style="italic">feedback on needs (+)</text></g>
<path d="M 1183.7 844.7 Q 1209.6 873.3 1161.0 887.3" stroke="#1B6CA8" stroke-width="2.4" fill="none" marker-end="url(#b)"/>
<g transform="translate(1180.9,869.0)"><rect width="104" height="18" rx="4" fill="#FFFFFF" stroke="#E4E0D4" stroke-width="0.5"/><text x="52" y="13" font-size="9.3" fill="#1B6CA8" text-anchor="middle" font-family="Calibri, sans-serif" font-style="italic">raises fidelity (+)</text></g>
<path d="M 1084.4 933.1 Q 1020.0 971.1 955.6 933.1" stroke="#1B6CA8" stroke-width="2.4" fill="none" marker-end="url(#b)"/>
<g transform="translate(973.2,986.1)"><rect width="94" height="18" rx="4" fill="#FFFFFF" stroke="#E4E0D4" stroke-width="0.5"/><text x="47" y="13" font-size="9.3" fill="#1B6CA8" text-anchor="middle" font-family="Calibri, sans-serif" font-style="italic">makes it land (+)</text></g>
<path d="M 879.0 887.3 Q 830.4 873.3 856.3 844.7" stroke="#1B6CA8" stroke-width="2.4" fill="none" marker-end="url(#b)"/>
<g transform="translate(771.1,869.0)"><rect width="72" height="18" rx="4" fill="#FFFFFF" stroke="#E4E0D4" stroke-width="0.5"/><text x="36" y="13" font-size="9.3" fill="#1B6CA8" text-anchor="middle" font-family="Calibri, sans-serif" font-style="italic">gets used (+)</text></g>
<path d="M 879.3 778.0 Q 896.7 733.1 972.4 737.0" stroke="#1B6CA8" stroke-width="2.4" fill="none" marker-end="url(#b)"/>
<g transform="translate(809.5,708.7)"><rect width="138" height="18" rx="4" fill="#FFFFFF" stroke="#E4E0D4" stroke-width="0.5"/><text x="69" y="13" font-size="9.3" fill="#1B6CA8" text-anchor="middle" font-family="Calibri, sans-serif" font-style="italic">deepens relationships (+)</text></g>
<rect x="42" y="1070" width="636" height="456" rx="12" fill="#FFFFFF" stroke="#E4E0D4" stroke-width="1"/>
<text x="64" y="1104" font-size="18" font-weight="bold" fill="#2E9B8A" font-family="Calibri, sans-serif">R3  Partner-leverage reach</text>
<text x="64" y="1124" font-size="12" font-style="italic" fill="#6B6B85" font-family="Calibri, sans-serif">Reinforcing loop</text>
<text x="360.0" y="1312.0" font-size="24" font-weight="bold" fill="#2E9B8A" text-anchor="middle" opacity="0.16" font-family="Calibri, sans-serif">R3</text>
<g transform="translate(60,1482)"><rect width="600" height="40" rx="6" fill="#F4F1E8" stroke="#E4E0D4" stroke-width="0.6"/><text x="14" y="17" font-size="10.5" fill="#5A5536" font-family="Calibri, sans-serif"><tspan x="14" dy="0">Lets PHIs disperse far beyond their own comms budget.</tspan><tspan x="14" dy="13"></tspan></text></g>
<circle cx="162.0" cy="1316.0" r="52" fill="#FBE268" stroke="#FFFFFF" stroke-width="2"/><text font-size="10.5" font-weight="bold" fill="#15233E" text-anchor="middle" font-family="Calibri, sans-serif"><tspan x="162.0" y="1309.5">Partner</tspan><tspan x="162.0" y="1322.6">channels</tspan></text>
<circle cx="558.0" cy="1316.0" r="52" fill="#6E97E8" stroke="#FFFFFF" stroke-width="2"/><text font-size="10.5" font-weight="bold" fill="#15233E" text-anchor="middle" font-family="Calibri, sans-serif"><tspan x="558.0" y="1309.5">Dissemination</tspan><tspan x="558.0" y="1322.6">reach</tspan></text>
<path d="M 214.0 1300.0 Q 360.0 1170.0 506.0 1300.0" stroke="#2E9B8A" stroke-width="2.4" fill="none" marker-end="url(#t)"/>
<g transform="translate(274.8,1157.0)"><rect width="170" height="18" rx="4" fill="#FFFFFF" stroke="#E4E0D4" stroke-width="0.5"/><text x="85" y="13" font-size="9.3" fill="#2E9B8A" text-anchor="middle" font-family="Calibri, sans-serif" font-style="italic">extends reach, frees budget (+)</text></g>
<path d="M 506.0 1332.0 Q 360.0 1462.0 214.0 1332.0" stroke="#2E9B8A" stroke-width="2.4" fill="none" marker-end="url(#t)"/>
<g transform="translate(272.0,1457.0)"><rect width="176" height="18" rx="4" fill="#FFFFFF" stroke="#E4E0D4" stroke-width="0.5"/><text x="88" y="13" font-size="9.3" fill="#2E9B8A" text-anchor="middle" font-family="Calibri, sans-serif" font-style="italic">visibility attracts partners (+)</text></g>
<rect x="702" y="1070" width="636" height="456" rx="12" fill="#FFFFFF" stroke="#E4E0D4" stroke-width="1"/>
<text x="724" y="1104" font-size="18" font-weight="bold" fill="#E67E22" font-family="Calibri, sans-serif">B1  Reach vs. fidelity</text>
<text x="724" y="1124" font-size="12" font-style="italic" fill="#6B6B85" font-family="Calibri, sans-serif">Balancing loop</text>
<text x="1020.0" y="1312.0" font-size="24" font-weight="bold" fill="#E67E22" text-anchor="middle" opacity="0.16" font-family="Calibri, sans-serif">B1</text>
<g transform="translate(720,1482)"><rect width="600" height="40" rx="6" fill="#F4F1E8" stroke="#E4E0D4" stroke-width="0.6"/><text x="14" y="17" font-size="10.5" fill="#5A5536" font-family="Calibri, sans-serif"><tspan x="14" dy="0">The central tension: scale and fidelity must be balanced, not maximized.</tspan><tspan x="14" dy="13"></tspan></text></g>
<circle cx="1020.0" cy="1196.0" r="52" fill="#6E97E8" stroke="#FFFFFF" stroke-width="2"/><text font-size="10.5" font-weight="bold" fill="#15233E" text-anchor="middle" font-family="Calibri, sans-serif"><tspan x="1020.0" y="1189.5">Dissemination</tspan><tspan x="1020.0" y="1202.6">reach</tspan></text>
<circle cx="1191.5" cy="1376.0" r="52" fill="#6E97E8" stroke="#FFFFFF" stroke-width="2"/><text font-size="10.5" font-weight="bold" fill="#15233E" text-anchor="middle" font-family="Calibri, sans-serif"><tspan x="1191.473029949319" y="1369.5">Fidelity of</tspan><tspan x="1191.473029949319" y="1382.6">translation</tspan></text>
<circle cx="848.5" cy="1376.0" r="52" fill="#C7B2EA" stroke="#FFFFFF" stroke-width="2"/><text font-size="10.5" font-weight="bold" fill="#15233E" text-anchor="middle" font-family="Calibri, sans-serif"><tspan x="848.5269700506811" y="1369.5">Meaningful</tspan><tspan x="848.5269700506811" y="1382.6">application</tspan></text>
<path d="M 1055.9 1233.7 Q 1141.6 1273.4 1155.6 1338.3" stroke="#E67E22" stroke-width="2.4" fill="none" marker-end="url(#o)"/>
<g transform="translate(1092.8,1256.5)"><rect width="143" height="18" rx="4" fill="#FFFFFF" stroke="#E4E0D4" stroke-width="0.5"/><text x="72" y="13" font-size="9.3" fill="#E67E22" text-anchor="middle" font-family="Calibri, sans-serif" font-style="italic">scale lowers tailoring (−)</text></g>
<path d="M 1139.5 1376.0 Q 1020.0 1414.0 900.5 1376.0" stroke="#E67E22" stroke-width="2.4" fill="none" marker-end="url(#o)"/>
<g transform="translate(948.5,1429.0)"><rect width="143" height="18" rx="4" fill="#FFFFFF" stroke="#E4E0D4" stroke-width="0.5"/><text x="72" y="13" font-size="9.3" fill="#E67E22" text-anchor="middle" font-family="Calibri, sans-serif" font-style="italic">fidelity makes it land (+)</text></g>
<path d="M 884.4 1338.3 Q 898.4 1273.4 984.1 1233.7" stroke="#E67E22" stroke-width="2.4" fill="none" marker-end="url(#o)"/>
<g transform="translate(801.5,1256.5)"><rect width="148" height="18" rx="4" fill="#FFFFFF" stroke="#E4E0D4" stroke-width="0.5"/><text x="74" y="13" font-size="9.3" fill="#E67E22" text-anchor="middle" font-family="Calibri, sans-serif" font-style="italic">demand pushes for reach (+)</text></g>
<rect x="42" y="1550" width="636" height="456" rx="12" fill="#FFFFFF" stroke="#E4E0D4" stroke-width="1"/>
<text x="64" y="1584" font-size="18" font-weight="bold" fill="#C0392B" font-family="Calibri, sans-serif">B2  Capacity / funding constraint</text>
<text x="64" y="1604" font-size="12" font-style="italic" fill="#6B6B85" font-family="Calibri, sans-serif">Balancing loop</text>
<text x="360.0" y="1792.0" font-size="24" font-weight="bold" fill="#C0392B" text-anchor="middle" opacity="0.16" font-family="Calibri, sans-serif">B2</text>
<g transform="translate(60,1962)"><rect width="600" height="40" rx="6" fill="#F4F1E8" stroke="#E4E0D4" stroke-width="0.6"/><text x="14" y="17" font-size="10.5" fill="#5A5536" font-family="Calibri, sans-serif"><tspan x="14" dy="0">Relief valves: government funding + partner-leveraged resources.</tspan><tspan x="14" dy="13"></tspan></text></g>
<circle cx="360.0" cy="1676.0" r="52" fill="#C7B2EA" stroke="#FFFFFF" stroke-width="2"/><text font-size="10.5" font-weight="bold" fill="#15233E" text-anchor="middle" font-family="Calibri, sans-serif"><tspan x="360.0" y="1669.5">Demand for</tspan><tspan x="360.0" y="1682.6">dissemination</tspan></text>
<circle cx="531.5" cy="1856.0" r="52" fill="#B7CEF0" stroke="#FFFFFF" stroke-width="2"/><text font-size="10.5" font-weight="bold" fill="#15233E" text-anchor="middle" font-family="Calibri, sans-serif"><tspan x="531.4730299493189" y="1849.5">Capacity</tspan><tspan x="531.4730299493189" y="1862.6">(thinly funded)</tspan></text>
<circle cx="188.5" cy="1856.0" r="52" fill="#B7CEF0" stroke="#FFFFFF" stroke-width="2"/><text font-size="10.5" font-weight="bold" fill="#15233E" text-anchor="middle" font-family="Calibri, sans-serif"><tspan x="188.52697005068117" y="1849.5">Triage /</tspan><tspan x="188.52697005068117" y="1862.6">unmet need</tspan></text>
<path d="M 395.9 1713.7 Q 481.6 1753.4 495.6 1818.3" stroke="#C0392B" stroke-width="2.4" fill="none" marker-end="url(#r)"/>
<g transform="translate(449.3,1736.5)"><rect width="110" height="18" rx="4" fill="#FFFFFF" stroke="#E4E0D4" stroke-width="0.5"/><text x="55" y="13" font-size="9.3" fill="#C0392B" text-anchor="middle" font-family="Calibri, sans-serif" font-style="italic">outruns capacity (−)</text></g>
<path d="M 479.5 1856.0 Q 360.0 1894.0 240.5 1856.0" stroke="#C0392B" stroke-width="2.4" fill="none" marker-end="url(#r)"/>
<g transform="translate(313.2,1909.0)"><rect width="94" height="18" rx="4" fill="#FFFFFF" stroke="#E4E0D4" stroke-width="0.5"/><text x="47" y="13" font-size="9.3" fill="#C0392B" text-anchor="middle" font-family="Calibri, sans-serif" font-style="italic">forces triage (+)</text></g>
<path d="M 224.4 1818.3 Q 238.4 1753.4 324.1 1713.7" stroke="#C0392B" stroke-width="2.4" fill="none" marker-end="url(#r)"/>
<g transform="translate(163.5,1736.5)"><rect width="104" height="18" rx="4" fill="#FFFFFF" stroke="#E4E0D4" stroke-width="0.5"/><text x="52" y="13" font-size="9.3" fill="#C0392B" text-anchor="middle" font-family="Calibri, sans-serif" font-style="italic">limits delivery (+)</text></g>
<rect x="702" y="1550" width="636" height="456" rx="12" fill="#FFFFFF" stroke="#E4E0D4" stroke-width="1"/>
<text x="724" y="1584" font-size="18" font-weight="bold" fill="#C0392B" font-family="Calibri, sans-serif">B3  Neutrality tension</text>
<text x="724" y="1604" font-size="12" font-style="italic" fill="#6B6B85" font-family="Calibri, sans-serif">Balancing loop</text>
<text x="1020.0" y="1792.0" font-size="24" font-weight="bold" fill="#C0392B" text-anchor="middle" opacity="0.16" font-family="Calibri, sans-serif">B3</text>
<g transform="translate(720,1962)"><rect width="600" height="40" rx="6" fill="#F4F1E8" stroke="#E4E0D4" stroke-width="0.6"/><text x="14" y="17" font-size="10.5" fill="#5A5536" font-family="Calibri, sans-serif"><tspan x="14" dy="0">Lever: careful, inclusive language. Threat: polarization.</tspan><tspan x="14" dy="13"></tspan></text></g>
<circle cx="1020.0" cy="1676.0" r="52" fill="#6E97E8" stroke="#FFFFFF" stroke-width="2"/><text font-size="10.5" font-weight="bold" fill="#15233E" text-anchor="middle" font-family="Calibri, sans-serif"><tspan x="1020.0" y="1669.5">Nonpartisan</tspan><tspan x="1020.0" y="1682.6">standing</tspan></text>
<circle cx="1191.5" cy="1856.0" r="52" fill="#6E97E8" stroke="#FFFFFF" stroke-width="2"/><text font-size="10.5" font-weight="bold" fill="#15233E" text-anchor="middle" font-family="Calibri, sans-serif"><tspan x="1191.473029949319" y="1849.5">Cross-boundary</tspan><tspan x="1191.473029949319" y="1862.6">reach</tspan></text>
<circle cx="848.5" cy="1856.0" r="52" fill="#FBE268" stroke="#FFFFFF" stroke-width="2"/><text font-size="10.5" font-weight="bold" fill="#15233E" text-anchor="middle" font-family="Calibri, sans-serif"><tspan x="848.5269700506811" y="1849.5">Pressure to</tspan><tspan x="848.5269700506811" y="1862.6">take sides</tspan></text>
<path d="M 1055.9 1713.7 Q 1141.6 1753.4 1155.6 1818.3" stroke="#C0392B" stroke-width="2.4" fill="none" marker-end="url(#r)"/>
<g transform="translate(1073.5,1736.5)"><rect width="182" height="18" rx="4" fill="#FFFFFF" stroke="#E4E0D4" stroke-width="0.5"/><text x="91" y="13" font-size="9.3" fill="#C0392B" text-anchor="middle" font-family="Calibri, sans-serif" font-style="italic">earns reach across the divide (+)</text></g>
<path d="M 1139.5 1856.0 Q 1020.0 1894.0 900.5 1856.0" stroke="#C0392B" stroke-width="2.4" fill="none" marker-end="url(#r)"/>
<g transform="translate(937.5,1909.0)"><rect width="165" height="18" rx="4" fill="#FFFFFF" stroke="#E4E0D4" stroke-width="0.5"/><text x="82" y="13" font-size="9.3" fill="#C0392B" text-anchor="middle" font-family="Calibri, sans-serif" font-style="italic">invites political pressure (+)</text></g>
<path d="M 884.4 1818.3 Q 898.4 1753.4 984.1 1713.7" stroke="#C0392B" stroke-width="2.4" fill="none" marker-end="url(#r)"/>
<g transform="translate(801.5,1736.5)"><rect width="148" height="18" rx="4" fill="#FFFFFF" stroke="#E4E0D4" stroke-width="0.5"/><text x="74" y="13" font-size="9.3" fill="#C0392B" text-anchor="middle" font-family="Calibri, sans-serif" font-style="italic">erodes neutral standing (−)</text></g>
</svg>